#!OML:ASF F:\VICON\USERDATA\INSTALL\rory3\rory3.ASF
:FULLY-SPECIFIED
:DEGREES
176
root -0.525464 17.987 4.00124 -1.50286 33.7446 2.9285
lowerback 14.1185 2.62295 -3.10859
upperback 3.04385 3.03952 -0.341799
thorax -4.8283 1.55301 0.84284
lowerneck -12.5823 -4.66474 -11.6971
upperneck 41.0949 -5.01271 5.78807
head 17.9053 -2.83642 3.96352
rclavicle 4.99446e-014 -1.32192e-014
rhumerus -25.9646 -13.8958 -79.3572
rradius 34.7158
rwrist 5.58313
rhand -16.2466 8.87053
rfingers 7.12502
rthumb 9.96229 -20.8737
lclavicle 4.99446e-014 -1.32192e-014
lhumerus -34.0344 6.96504 80.8475
lradius 31.1277
lwrist -6.11002
lhand -19.039 23.395
lfingers 7.12502
lthumb 7.26749 53.2502
rfemur -13.5042 -6.2038 16.3225
rtibia 64.9308
rfoot 1.62272 -4.50606
rtoes 12.2345
lfemur -9.0483 0.0892849 -22.4946
ltibia 12.1186
lfoot 3.1223 -8.51248
ltoes -0.593285
177
root -0.456797 18.0001 4.06998 -1.5068 33.6379 2.84496
lowerback 14.2444 2.626 -2.95501
upperback 3.03279 3.05988 -0.360178
thorax -4.90073 1.56154 0.727795
lowerneck -12.497 -4.64667 -11.4742
upperneck 41.0651 -4.97586 5.5725
head 17.8394 -2.81454 3.82589
rclavicle -5.92875e-014 1.27222e-014
rhumerus -26.0859 -14.081 -79.4272
rradius 34.6727
rwrist 5.89878
rhand -16.2684 8.67451
rfingers 7.12502
rthumb 9.94119 -21.0708
lclavicle -5.92875e-014 1.27222e-014
lhumerus -33.817 7.16489 80.5557
lradius 31.1548
lwrist -6.60983
lhand -18.8718 22.3319
lfingers 7.12502
lthumb 7.42889 52.1815
rfemur -14.5395 -6.62631 16.3703
rtibia 65.3421
rfoot 1.04287 -5.4948
rtoes 13.6192
lfemur -8.80733 0.18895 -22.4915
ltibia 12.2569
lfoot 2.82624 -8.36355
ltoes 0.175359
178
root -0.388429 18.0088 4.1349 -1.52985 33.545 2.65166
lowerback 14.3473 2.60619 -2.67077
upperback 3.03906 3.07227 -0.358558
thorax -4.93632 1.56411 0.563353
lowerneck -12.4712 -4.63276 -11.4397
upperneck 41.0302 -4.95412 5.53851
head 17.8057 -2.80456 3.80583
rclavicle -1.34043e-013 3.06128e-014
rhumerus -26.15 -14.4056 -79.4488
rradius 34.6379
rwrist 6.26799
rhand -15.8979 8.86657
rfingers 7.12502
rthumb 10.2987 -20.8613
lclavicle -1.34043e-013 3.06128e-014
lhumerus -33.5735 7.35508 80.3585
lradius 31.3574
lwrist -6.51017
lhand -18.6955 21.8668
lfingers 7.12502
lthumb 7.59903 51.7103
rfemur -15.6014 -7.074 16.5269
rtibia 65.556
rfoot 0.419768 -6.35851
rtoes 14.1575
lfemur -8.64854 0.0349741 -22.3846
ltibia 12.4613
lfoot 2.56803 -7.95583
ltoes 1.51283
179
root -0.323452 18.0177 4.19867 -1.53713 33.5125 2.5454
lowerback 14.5247 2.52335 -2.51626
upperback 3.02232 2.98074 -0.33953
thorax -5.04112 1.51771 0.505659
lowerneck -12.465 -4.57209 -11.4351
upperneck 41.0553 -4.82786 5.45439
head 17.7983 -2.76496 3.78949
rclavicle -8.07563e-015 1.08338e-014
rhumerus -26.1927 -14.2695 -79.5667
rradius 34.6493
rwrist 6.29589
rhand -15.4131 8.75601
rfingers 7.12502
rthumb 10.7663 -20.9481
lclavicle -8.07563e-015 1.08338e-014
lhumerus -33.4353 7.71774 80.1442
lradius 31.644
lwrist -6.35044
lhand -18.8109 21.98
lfingers 7.12502
lthumb 7.4877 51.8275
rfemur -16.5362 -7.46342 16.6588
rtibia 65.5974
rfoot -0.175023 -7.07909
rtoes 13.8838
lfemur -8.49213 -0.20868 -22.3567
ltibia 12.7182
lfoot 2.17861 -7.5872
ltoes 1.51041
180
root -0.260392 18.0239 4.26395 -1.5207 33.5137 2.45626
lowerback 14.601 2.40885 -2.45987
upperback 3.04523 2.83968 -0.278436
thorax -5.0547 1.44789 0.562414
lowerneck -12.4193 -4.47334 -11.3932
upperneck 41.0222 -4.65574 5.35593
head 17.7372 -2.70224 3.76537
rclavicle -4.32357e-015 -9.54166e-015
rhumerus -26.113 -13.9964 -79.7283
rradius 34.5854
rwrist 6.19425
rhand -15.3528 8.4651
rfingers 7.12502
rthumb 10.8244 -21.236
lclavicle -4.32357e-015 -9.54166e-015
lhumerus -33.3108 8.03748 79.9855
lradius 32.008
lwrist -6.15168
lhand -18.8631 22.0064
lfingers 7.12502
lthumb 7.43731 51.8557
rfemur -17.4252 -7.86387 16.7972
rtibia 65.4594
rfoot -0.681458 -7.50533
rtoes 13.4845
lfemur -8.40276 -0.41329 -22.3432
ltibia 13.0439
lfoot 1.76546 -7.27981
ltoes 1.7241
181
root -0.198959 18.0313 4.32417 -1.31066 33.5145 2.4804
lowerback 14.6115 2.31362 -2.52025
upperback 3.01988 2.70759 -0.206795
thorax -5.08935 1.3843 0.695783
lowerneck -12.3885 -4.41827 -11.3983
upperneck 41.021 -4.51297 5.20632
head 17.7052 -2.66573 3.7214
rclavicle 1.59028e-014 -1.85864e-014
rhumerus -26.0761 -13.7656 -79.7787
rradius 34.5527
rwrist 5.98973
rhand -15.6076 8.35423
rfingers 7.12502
rthumb 10.5787 -21.3595
lclavicle 1.59028e-014 -1.85864e-014
lhumerus -33.2094 8.3787 79.8852
lradius 32.3427
lwrist -5.97852
lhand -18.4595 22.1053
lfingers 7.12502
lthumb 7.82685 51.9404
rfemur -18.4714 -8.2842 16.8442
rtibia 65.1707
rfoot -1.16493 -7.63976
rtoes 13.3673
lfemur -8.49633 -0.613053 -22.4429
ltibia 13.3853
lfoot 1.38811 -6.96494
ltoes 2.33794
182
root -0.138955 18.036 4.38654 -1.18571 33.5008 2.37439
lowerback 14.6201 2.23714 -2.49464
upperback 2.99169 2.61368 -0.12841
thorax -5.12339 1.33835 0.780728
lowerneck -12.3916 -4.34972 -11.2191
upperneck 41.039 -4.35646 4.94557
head 17.679 -2.60911 3.59513
rclavicle 7.10655e-015 -1.70955e-014
rhumerus -26.1318 -13.7131 -79.798
rradius 34.6293
rwrist 5.99076
rhand -15.7347 8.27238
rfingers 7.12502
rthumb 10.456 -21.4476
lclavicle 7.10655e-015 -1.70955e-014
lhumerus -33.1023 8.48634 79.9104
lradius 32.7924
lwrist -5.31412
lhand -18.5198 22.9657
lfingers 7.12502
lthumb 7.76866 52.8029
rfemur -19.4178 -8.67461 17.0307
rtibia 64.7011
rfoot -1.79215 -7.70027
rtoes 13.1083
lfemur -8.63157 -0.692845 -22.4262
ltibia 13.8399
lfoot 0.979615 -6.81983
ltoes 2.8799
183
root -0.0777912 18.038 4.45341 -1.07967 33.4442 2.32109
lowerback 14.6104 2.18562 -2.46517
upperback 3.01031 2.55039 -0.135284
thorax -5.0946 1.30654 0.7698
lowerneck -12.4862 -4.31261 -11.0065
upperneck 41.0357 -4.29116 4.7807
head 17.6778 -2.57169 3.48999
rclavicle -9.28573e-014 3.1408e-014
rhumerus -26.1942 -13.7935 -79.8877
rradius 34.7281
rwrist 6.05401
rhand -15.6719 8.21591
rfingers 7.12502
rthumb 10.5167 -21.501
lclavicle -9.28573e-014 3.1408e-014
lhumerus -32.9697 8.16795 79.9618
lradius 33.3824
lwrist -4.27584
lhand -19.1922 24.0783
lfingers 7.12502
lthumb 7.11966 53.9385
rfemur -20.2561 -8.94172 17.1692
rtibia 64.0581
rfoot -2.42132 -7.72331
rtoes 12.7369
lfemur -8.74671 -0.722777 -22.4665
ltibia 14.3824
lfoot 0.406684 -6.66492
ltoes 2.85982
184
root -0.0218659 18.0314 4.52059 -0.860771 33.4696 2.42628
lowerback 14.6732 2.14998 -2.60297
upperback 2.9723 2.48029 -0.119583
thorax -5.17299 1.27474 0.874224
lowerneck -12.5304 -4.30822 -11.0692
upperneck 41.0843 -4.2526 4.76454
head 17.7162 -2.56917 3.50246
rclavicle 4.89507e-015 1.09332e-014
rhumerus -26.2699 -13.8002 -79.8913
rradius 34.7682
rwrist 6.02048
rhand -15.7233 8.21532
rfingers 7.12502
rthumb 10.4671 -21.5041
lclavicle 4.89507e-015 1.09332e-014
lhumerus -33.0688 7.78882 79.9594
lradius 34.0148
lwrist -3.67514
lhand -19.2235 23.8189
lfingers 7.12502
lthumb 7.0894 53.6802
rfemur -21.0695 -9.21587 17.206
rtibia 63.2455
rfoot -3.13484 -7.69826
rtoes 12.3132
lfemur -8.95169 -0.822147 -22.6123
ltibia 15.0564
lfoot -0.163611 -6.50009
ltoes 2.80348
185
root 0.0293924 18.0246 4.5886 -0.712811 33.4613 2.41186
lowerback 14.7231 2.12605 -2.61946
upperback 2.97924 2.44651 -0.0883035
thorax -5.19365 1.25864 0.921377
lowerneck -12.5306 -4.32484 -11.0582
upperneck 41.0203 -4.27152 4.73086
head 17.6798 -2.57903 3.47798
rclavicle 2.31833e-014 -1.35174e-014
rhumerus -26.3114 -13.7569 -79.9414
rradius 34.9094
rwrist 5.80674
rhand -15.8344 8.31691
rfingers 7.12502
rthumb 10.3599 -21.4079
lclavicle 2.31833e-014 -1.35174e-014
lhumerus -33.0907 7.21506 80.0044
lradius 34.6793
lwrist -3.01665
lhand -19.0268 23.2493
lfingers 7.12502
lthumb 7.27925 53.1041
rfemur -21.8284 -9.38427 17.3956
rtibia 62.2665
rfoot -3.94676 -7.54427
rtoes 11.8521
lfemur -9.16702 -0.92541 -22.6144
ltibia 15.7888
lfoot -0.762288 -6.32604
ltoes 2.43104
186
root 0.0820374 18.0193 4.65689 -0.636877 33.4775 2.30488
lowerback 14.7415 2.06012 -2.59371
upperback 3.02311 2.36906 0.000602647
thorax -5.15715 1.22026 1.01572
lowerneck -12.6451 -4.31857 -11.1737
upperneck 41.0857 -4.24237 4.80226
head 17.7527 -2.57739 3.53996
rclavicle -3.46382e-014 1.09332e-014
rhumerus -26.3051 -13.6791 -80.0037
rradius 35.0903
rwrist 5.65956
rhand -15.8878 8.44732
rfingers 7.12502
rthumb 10.3084 -21.28
lclavicle -3.46382e-014 1.09332e-014
lhumerus -32.9837 6.42583 80.3969
lradius 35.6039
lwrist -1.45087
lhand -19.4387 25.2039
lfingers 7.12502
lthumb 6.88166 55.072
rfemur -22.4622 -9.62127 17.6372
rtibia 61.1119
rfoot -4.83017 -7.26661
rtoes 11.487
lfemur -9.3803 -1.08183 -22.5383
ltibia 16.5703
lfoot -1.36498 -6.13283
ltoes 2.33375
187
root 0.133612 18.0071 4.72429 -0.484514 33.4781 2.3349
lowerback 14.7608 1.99283 -2.70328
upperback 3.08168 2.26857 0.0736449
thorax -5.10869 1.1722 1.17433
lowerneck -12.7062 -4.29468 -11.4592
upperneck 41 -4.21597 5.04903
head 17.7358 -2.57853 3.70858
rclavicle 1.83876e-015 -6.16232e-015
rhumerus -26.2241 -13.4034 -80.0619
rradius 35.2694
rwrist 5.48878
rhand -15.6872 8.26586
rfingers 7.12502
rthumb 10.5019 -21.4518
lclavicle 1.83876e-015 -6.16232e-015
lhumerus -32.7567 6.54217 80.3505
lradius 35.9168
lwrist -1.37131
lhand -19.4862 24.3416
lfingers 7.12502
lthumb 6.83581 54.2113
rfemur -23.0706 -9.8323 17.7634
rtibia 59.8317
rfoot -6.05902 -7.3074
rtoes 9.51451
lfemur -9.63685 -1.14755 -22.5985
ltibia 17.3605
lfoot -1.96795 -5.97303
ltoes 2.39068
188
root 0.18223 17.9922 4.7917 -0.366213 33.5275 2.33276
lowerback 14.7892 1.95075 -2.80016
upperback 3.15554 2.20287 0.135168
thorax -5.04904 1.14073 1.30696
lowerneck -12.8175 -4.30668 -11.4307
upperneck 40.9397 -4.19913 4.96262
head 17.7242 -2.57775 3.66191
rclavicle 8.54774e-015 5.96354e-016
rhumerus -26.102 -13.2764 -80.1025
rradius 35.3489
rwrist 5.34308
rhand -15.8559 8.20419
rfingers 7.12502
rthumb 10.3392 -21.5216
lclavicle 8.54774e-015 5.96354e-016
lhumerus -32.4896 6.20291 80.4166
lradius 36.3639
lwrist -0.935698
lhand -19.6287 24.1005
lfingers 7.12502
lthumb 6.69829 53.9746
rfemur -23.5845 -10.0501 17.9293
rtibia 58.3913
rfoot -7.15261 -7.39132
rtoes 7.81634
lfemur -9.89909 -1.0461 -22.6215
ltibia 18.1897
lfoot -2.62617 -6.10786
ltoes 1.402
189
root 0.22691 17.9817 4.85929 -0.194515 33.6307 2.29749
lowerback 14.8059 1.89635 -2.8747
upperback 3.16952 2.12218 0.180452
thorax -5.04393 1.1022 1.41202
lowerneck -12.8587 -4.30782 -11.3798
upperneck 40.9535 -4.18015 4.88409
head 17.7363 -2.57298 3.61934
rclavicle -6.03808e-014 7.95139e-016
rhumerus -26.0987 -13.02 -80.1939
rradius 35.5684
rwrist 4.94067
rhand -16.235 8.22346
rfingers 7.12502
rthumb 9.97345 -21.5203
lclavicle -6.03808e-014 7.95139e-016
lhumerus -32.2965 5.54225 80.5307
lradius 36.9881
lwrist -0.22358
lhand -19.6172 25.2296
lfingers 7.12502
lthumb 6.70939 55.1033
rfemur -24.103 -10.318 18.1614
rtibia 56.7801
rfoot -7.71538 -6.89903
rtoes 7.50224
lfemur -10.2739 -0.928459 -22.5997
ltibia 19.0893
lfoot -3.35388 -6.28557
ltoes 0.592312
